<?xml version="1.0" encoding="UTF-8"?>
<svg width="20px" height="32px" viewBox="0 0 20 32" version="1.1" xmlns="http://www.w3.org/2000/svg" xmlns:xlink="http://www.w3.org/1999/xlink">
    <!-- Generator: sketchtool 59 (101010) - https://sketch.com -->
    <title>D686865C-0E08-41F5-BF7A-3D5F13972599</title>
    <desc>Created with sketchtool.</desc>
    <g id="Web" stroke="none" stroke-width="1" fill="none" fill-rule="evenodd" stroke-linejoin="round">
        <g id="1.1.3" transform="translate(-156.000000, -4904.000000)" stroke="#FFFFFF">
            <g id="Group-2" transform="translate(114.000000, 4859.000000)">
                <g id="Group-8" transform="translate(42.000000, 45.000000)">
                    <path d="M18.7946417,9.69395833 C18.7946417,14.7194583 9.81714167,29.248125 9.81714167,29.248125 C9.81714167,29.248125 0.594225,14.7194583 0.594225,9.69395833 C0.594225,4.66845833 4.66814167,0.592958333 9.69364167,0.592958333 C14.720725,0.592958333 18.7946417,4.66845833 18.7946417,9.69395833 Z" id="Stroke-1"></path>
                    <path d="M13.8041333,9.86179167 C13.8041333,12.1322917 11.9643,13.972125 9.6938,13.972125 C7.42488333,13.972125 5.58346667,12.1322917 5.58346667,9.86179167 C5.58346667,7.59129167 7.42488333,5.75145833 9.6938,5.75145833 C11.9643,5.75145833 13.8041333,7.59129167 13.8041333,9.86179167 Z" id="Stroke-3"></path>
                    <g id="Group-7" transform="translate(3.166667, 30.392558)" stroke-linecap="round">
                        <line x1="1.00684167" y1="0.989583333" x2="12.8533417" y2="0.989583333" id="Stroke-5"></line>
                    </g>
                </g>
            </g>
        </g>
    </g>
</svg>